<svg xmlns="http://www.w3.org/2000/svg" width="141" height="72" viewBox="0 0 141 72">
  <g id="Certificates_Button" transform="translate(-112 65)">
    <g id="Light_Tabs_Î©Elements_6_States_Text_Icon_Active" data-name="Light ðŸŒ•/Tabs/Î©Elements/(6 States) Text + Icon /Active" transform="translate(112 -65)">
      <g id="Light_Elevation_00dp" data-name="Light ðŸŒ•/Elevation/00dp">
        <rect id="Rectangle" width="141" height="72" fill="#fff" opacity="0" style="mix-blend-mode: multiply;isolation: isolate"/>
      </g>
      <path id="_Caption" data-name="âœï¸ Caption" d="M-43.878.2a6.951,6.951,0,0,0,2.16-.276c.216-.1.24-.12.312-.348a12.446,12.446,0,0,0,.264-1.536c0-.1-.024-.18-.084-.18s-.1.048-.12.18A2.284,2.284,0,0,1-41.79-.948a2.761,2.761,0,0,1-2.088.6A4.333,4.333,0,0,1-48.21-4.74a4.015,4.015,0,0,1,1.08-3.132,3.662,3.662,0,0,1,2.76-.876,4,4,0,0,1,2.4.684,1.661,1.661,0,0,1,.5,1.224c0,.168.012.252.1.252s.1-.072.108-.252.012-.84.036-1.236c.024-.432.06-.576.06-.672,0-.072-.024-.12-.156-.132a10.421,10.421,0,0,1-1.224-.18,10.285,10.285,0,0,0-1.74-.144,4.849,4.849,0,0,0-3.66,1.284A4.791,4.791,0,0,0-49.29-4.644a4.6,4.6,0,0,0,1.452,3.552A5.538,5.538,0,0,0-43.878.2Zm6.456-3.648c0,1.152,0,2.1-.06,2.6-.048.348-.108.612-.348.66a1.853,1.853,0,0,1-.36.048c-.072,0-.1.036-.1.072,0,.072.06.1.192.1.18,0,.456-.024.7-.024s.456-.012.48-.012c.18,0,.468.012.936.036s1.128.036,2.028.036c.468,0,.564,0,.648-.312.06-.252.156-1.068.156-1.164s0-.18-.072-.18-.084.048-.108.18c-.084.492-.228.732-.54.864a3.442,3.442,0,0,1-1.152.132c-1.176,0-1.356-.156-1.392-.984-.012-.252,0-1.644,0-2.052V-4.5a.076.076,0,0,1,.084-.084c.2,0,1.392.024,1.716.06.468.048.576.252.624.42a1.225,1.225,0,0,1,.048.4c0,.06.024.108.084.108.084,0,.084-.132.084-.228s.024-.528.048-.768c.036-.4.1-.6.1-.672s-.024-.1-.06-.1-.1.06-.18.156c-.108.12-.276.144-.564.168s-1.752.024-1.908.024c-.06,0-.072-.036-.072-.12V-8.448c0-.084.024-.12.072-.12.132,0,1.44.012,1.644.036.648.072.768.216.852.408a1.288,1.288,0,0,1,.072.432c0,.1.024.156.1.156.048,0,.072-.072.084-.132.024-.144.048-.672.06-.792.036-.336.1-.48.1-.564,0-.06-.012-.108-.048-.108-.06,0-.108.048-.168.06a3.2,3.2,0,0,1-.516.06C-34.446-9-36.834-9-36.918-9l-.492-.024c-.264-.012-.588-.012-.864-.012-.132,0-.192.024-.192.1,0,.048.048.072.1.072a2.244,2.244,0,0,1,.408.036c.4.084.492.276.516.684.024.384.024.72.024,2.592Zm8.16,0c0,1.152,0,2.1-.06,2.6-.048.348-.108.612-.348.66a1.853,1.853,0,0,1-.36.048c-.072,0-.1.036-.1.072,0,.072.06.1.192.1.36,0,1.116-.036,1.128-.036.06,0,.816.036,1.476.036.132,0,.192-.036.192-.1,0-.036-.024-.072-.1-.072a5.234,5.234,0,0,1-.54-.048c-.36-.048-.432-.312-.468-.66-.06-.5-.06-1.452-.06-2.6v-.288c0-.06.024-.1.084-.1l1.476.024a.193.193,0,0,1,.156.072c.24.312.8,1.116,1.308,1.776a6.262,6.262,0,0,0,1.62,1.764,2.442,2.442,0,0,0,1.284.228h.852c.216,0,.288-.024.288-.1,0-.036-.048-.072-.108-.072a2.878,2.878,0,0,1-.468-.036,2.482,2.482,0,0,1-1.464-.864c-.7-.744-1.512-1.812-2.5-3.072a3.7,3.7,0,0,0,1.452-2.772,2.1,2.1,0,0,0-.828-1.632,3.7,3.7,0,0,0-2.2-.528c-.372,0-1.284.036-1.416.036-.06,0-.816-.036-1.356-.036-.132,0-.192.024-.192.1,0,.048.048.072.1.072a2.244,2.244,0,0,1,.408.036c.4.084.492.276.516.684.024.384.024.72.024,2.592Zm.96-4.992a.145.145,0,0,1,.1-.144,3.623,3.623,0,0,1,.8-.072c1.284,0,2.076.9,2.076,2.4A2.191,2.191,0,0,1-26.058-4.4a1.554,1.554,0,0,1-.9.228,3.307,3.307,0,0,1-1.26-.192.157.157,0,0,1-.084-.144Zm10.884-.084,1.512.024c1.152.024,1.44.3,1.476.66l.012.132c.012.168.036.2.1.2s.084-.048.084-.156c0-.132.036-.96.036-1.32,0-.072,0-.144-.06-.144s-.156.036-.336.06A4.8,4.8,0,0,1-15.45-9h-4.5c-.144,0-.6-.024-.948-.06a2.24,2.24,0,0,1-.528-.144c-.048,0-.1.156-.12.228-.024.1-.264,1.128-.264,1.248,0,.072.024.108.06.108s.084-.024.12-.12a2.11,2.11,0,0,1,.2-.372c.192-.288.48-.372,1.224-.384l1.776-.024v5.076c0,1.152,0,2.1-.06,2.6-.048.348-.108.612-.348.66a1.853,1.853,0,0,1-.36.048c-.072,0-.1.036-.1.072,0,.072.06.1.192.1.36,0,1.116-.036,1.176-.036s.816.036,1.476.036c.132,0,.192-.036.192-.1,0-.036-.024-.072-.1-.072a5.234,5.234,0,0,1-.54-.048c-.36-.048-.432-.312-.468-.66-.06-.5-.06-1.452-.06-2.6Zm7.584,2.964c0-1.872,0-2.208.024-2.592.024-.42.12-.624.444-.684a1.784,1.784,0,0,1,.3-.036c.048,0,.1-.024.1-.072,0-.072-.06-.1-.192-.1-.36,0-1.116.036-1.176.036s-.816-.036-1.212-.036c-.132,0-.192.024-.192.1,0,.048.048.072.1.072a1.575,1.575,0,0,1,.372.048c.264.06.384.264.408.672.024.384.024.72.024,2.592v2.112c0,1.152,0,2.1-.06,2.6-.048.348-.108.612-.348.66a1.853,1.853,0,0,1-.36.048c-.072,0-.1.036-.1.072,0,.072.06.1.192.1C-11.154.036-10.4,0-10.338,0s.816.036,1.476.036c.132,0,.192-.036.192-.1,0-.036-.024-.072-.1-.072a5.234,5.234,0,0,1-.54-.048c-.36-.048-.432-.312-.468-.66-.06-.5-.06-1.452-.06-2.6Zm5.112,2.112c0,1.152,0,2.1-.06,2.6-.048.348-.108.612-.348.66a1.853,1.853,0,0,1-.36.048c-.072,0-.1.036-.1.072,0,.072.06.1.192.1C-5.034.036-4.278,0-4.218,0S-3.4.036-2.742.036c.132,0,.192-.036.192-.1,0-.036-.024-.072-.1-.072a5.234,5.234,0,0,1-.54-.048c-.36-.048-.432-.312-.468-.66-.06-.5-.06-1.452-.06-2.6v-1.02c0-.084.024-.108.084-.108.2,0,1.512,0,1.812.036a.726.726,0,0,1,.624.432,2.026,2.026,0,0,1,.072.432c0,.06.024.108.084.108.084,0,.084-.12.084-.228,0-.084.024-.564.048-.8.036-.4.1-.6.1-.672s-.012-.1-.06-.1-.084.06-.132.12c-.108.156-.264.192-.552.216-.168.012-.336.012-.54.012L-3.63-5c-.072,0-.084-.036-.084-.108V-8.424c0-.1.036-.132.108-.132l1.848.036a.915.915,0,0,1,.816.384,1.294,1.294,0,0,1,.108.456c0,.084.024.144.084.144s.084-.072.1-.132c.024-.144.048-.672.06-.792.036-.336.1-.48.1-.564,0-.06-.024-.108-.072-.108s-.1.048-.168.072a2.628,2.628,0,0,1-.528.048C-1.542-9-3.978-8.988-4.218-9l-.492-.024c-.264-.012-.588-.012-.864-.012-.132,0-.192.024-.192.1,0,.048.048.072.1.072a2.244,2.244,0,0,1,.408.036c.4.084.492.276.516.684.024.384.024.72.024,2.592ZM4.23-5.556c0-1.872,0-2.208.024-2.592.024-.42.12-.624.444-.684A1.784,1.784,0,0,1,5-8.868c.048,0,.1-.024.1-.072,0-.072-.06-.1-.192-.1-.36,0-1.116.036-1.176.036s-.816-.036-1.212-.036c-.132,0-.192.024-.192.1,0,.048.048.072.1.072a1.575,1.575,0,0,1,.372.048c.264.06.384.264.408.672.024.384.024.72.024,2.592v2.112c0,1.152,0,2.1-.06,2.6-.048.348-.108.612-.348.66a1.853,1.853,0,0,1-.36.048c-.072,0-.1.036-.1.072,0,.072.06.1.192.1C2.91.036,3.666,0,3.726,0S4.542.036,5.2.036c.132,0,.192-.036.192-.1,0-.036-.024-.072-.1-.072a5.234,5.234,0,0,1-.54-.048C4.4-.228,4.326-.492,4.29-.84c-.06-.5-.06-1.452-.06-2.6ZM13.206.2a6.951,6.951,0,0,0,2.16-.276c.216-.1.24-.12.312-.348a12.445,12.445,0,0,0,.264-1.536c0-.1-.024-.18-.084-.18s-.1.048-.12.18a2.284,2.284,0,0,1-.444,1.008,2.761,2.761,0,0,1-2.088.6A4.333,4.333,0,0,1,8.874-4.74a4.015,4.015,0,0,1,1.08-3.132,3.662,3.662,0,0,1,2.76-.876,4,4,0,0,1,2.4.684,1.661,1.661,0,0,1,.5,1.224c0,.168.012.252.1.252s.1-.072.108-.252.012-.84.036-1.236c.024-.432.06-.576.06-.672,0-.072-.024-.12-.156-.132a10.421,10.421,0,0,1-1.224-.18A10.285,10.285,0,0,0,12.8-9.2,4.849,4.849,0,0,0,9.138-7.92,4.791,4.791,0,0,0,7.794-4.644,4.6,4.6,0,0,0,9.246-1.092,5.538,5.538,0,0,0,13.206.2Zm5.46-1.488c-.216.6-.456,1.056-1.008,1.128-.1.012-.264.024-.348.024-.06,0-.108.024-.108.072,0,.072.072.1.228.1C17.994.036,18.654,0,18.786,0s.648.036.936.036c.108,0,.18-.024.18-.1,0-.048-.036-.072-.12-.072h-.12c-.2,0-.456-.108-.456-.348a2.534,2.534,0,0,1,.168-.8l.72-2.124a.126.126,0,0,1,.12-.1h2.58a.1.1,0,0,1,.108.072L24.018-.48c.072.192,0,.3-.072.324-.048.012-.084.036-.084.084,0,.072.132.072.36.084.828.024,1.7.024,1.884.024.132,0,.24-.024.24-.1s-.048-.072-.12-.072a1.549,1.549,0,0,1-.48-.072c-.252-.072-.6-.264-1.032-1.332-.732-1.824-2.616-6.78-2.8-7.236-.144-.372-.192-.432-.264-.432s-.12.072-.264.468Zm1.68-2.652c-.036,0-.06-.024-.036-.084l1.056-3.24q.09-.27.18,0l1.14,3.24c.012.048.012.084-.048.084ZM30.618-8.52,32.13-8.5c1.152.024,1.44.3,1.476.66l.012.132c.012.168.036.2.1.2s.084-.048.084-.156c0-.132.036-.96.036-1.32,0-.072,0-.144-.06-.144s-.156.036-.336.06a4.8,4.8,0,0,1-.852.06h-4.5c-.144,0-.6-.024-.948-.06A2.24,2.24,0,0,1,26.61-9.2c-.048,0-.1.156-.12.228-.024.1-.264,1.128-.264,1.248,0,.072.024.108.06.108s.084-.024.12-.12a2.11,2.11,0,0,1,.2-.372c.192-.288.48-.372,1.224-.384L29.61-8.52v5.076c0,1.152,0,2.1-.06,2.6-.048.348-.108.612-.348.66a1.853,1.853,0,0,1-.36.048c-.072,0-.1.036-.1.072,0,.072.06.1.192.1C29.3.036,30.054,0,30.114,0s.816.036,1.476.036c.132,0,.192-.036.192-.1,0-.036-.024-.072-.1-.072a5.234,5.234,0,0,1-.54-.048c-.36-.048-.432-.312-.468-.66-.06-.5-.06-1.452-.06-2.6Zm6.576,5.076c0,1.152,0,2.1-.06,2.6-.048.348-.108.612-.348.66a1.853,1.853,0,0,1-.36.048c-.072,0-.1.036-.1.072,0,.072.06.1.192.1.18,0,.456-.024.7-.024S37.674,0,37.7,0c.18,0,.468.012.936.036s1.128.036,2.028.036c.468,0,.564,0,.648-.312.06-.252.156-1.068.156-1.164s0-.18-.072-.18-.084.048-.108.18c-.084.492-.228.732-.54.864a3.442,3.442,0,0,1-1.152.132c-1.176,0-1.356-.156-1.392-.984-.012-.252,0-1.644,0-2.052V-4.5a.076.076,0,0,1,.084-.084c.2,0,1.392.024,1.716.06.468.048.576.252.624.42a1.225,1.225,0,0,1,.048.4c0,.06.024.108.084.108.084,0,.084-.132.084-.228s.024-.528.048-.768c.036-.4.1-.6.1-.672s-.024-.1-.06-.1-.1.06-.18.156c-.108.12-.276.144-.564.168s-1.752.024-1.908.024c-.06,0-.072-.036-.072-.12V-8.448c0-.084.024-.12.072-.12.132,0,1.44.012,1.644.036.648.072.768.216.852.408a1.288,1.288,0,0,1,.072.432c0,.1.024.156.1.156.048,0,.072-.072.084-.132.024-.144.048-.672.06-.792.036-.336.1-.48.1-.564,0-.06-.012-.108-.048-.108-.06,0-.108.048-.168.06a3.2,3.2,0,0,1-.516.06C40.17-9,37.782-9,37.7-9l-.492-.024c-.264-.012-.588-.012-.864-.012-.132,0-.192.024-.192.1,0,.048.048.072.1.072a2.244,2.244,0,0,1,.408.036c.4.084.492.276.516.684.024.384.024.72.024,2.592Zm9,3.648a3.156,3.156,0,0,0,1.812-.5,2.486,2.486,0,0,0,1.02-1.992c0-.96-.336-1.7-1.752-2.82l-.336-.264c-1.152-.9-1.464-1.332-1.464-2.016A1.364,1.364,0,0,1,46.95-8.784c1.1,0,1.428.5,1.5.636a2.109,2.109,0,0,1,.156.6c.012.1.024.156.1.156s.084-.084.084-.276c0-.816.048-1.212.048-1.272s-.024-.084-.12-.084a1.963,1.963,0,0,1-.42-.06,4.654,4.654,0,0,0-1.116-.12,2.2,2.2,0,0,0-2.484,2.16c0,.816.288,1.56,1.56,2.6l.54.444c1.032.852,1.38,1.332,1.38,2.16a1.6,1.6,0,0,1-1.716,1.6,1.632,1.632,0,0,1-1.776-1.224,2.114,2.114,0,0,1-.036-.444c0-.1-.012-.132-.084-.132s-.084.06-.1.192c-.012.192-.06.672-.06,1.272,0,.324.012.372.18.456A3.641,3.641,0,0,0,46.194.2Z" transform="translate(71 56)" fill="#fff"/>
    </g>
    <path id="ic_assignment_24px" d="M19,3H14.82A2.988,2.988,0,0,0,9.18,3H5A2.006,2.006,0,0,0,3,5V19a2.006,2.006,0,0,0,2,2H19a2.006,2.006,0,0,0,2-2V5A2.006,2.006,0,0,0,19,3ZM12,3a1,1,0,1,1-1,1A1,1,0,0,1,12,3Zm2,14H7V15h7Zm3-4H7V11H17Zm0-4H7V7H17Z" transform="translate(171 -50)" fill="#fff"/>
  </g>
</svg>
