<svg xmlns="http://www.w3.org/2000/svg" width="144" height="72" viewBox="0 0 144 72">
  <g id="Certificates_Button" transform="translate(-107 65)">
    <g id="Behind_Certificates_Rectangle" transform="translate(107 -65)" fill="#982425" stroke="#982425" stroke-width="1">
      <rect width="144" height="72" stroke="none"/>
      <rect x="0.5" y="0.5" width="143" height="71" fill="none"/>
    </g>
    <text id="Certificates_Caption" transform="translate(179 -10)" fill="#fff" font-size="12" font-family="TrajanPro-Regular, Trajan Pro" letter-spacing="0.07em"><tspan x="-50.058" y="0">CERTIFICATES</tspan></text>
    <path id="Document_Icon_white" d="M19,3H14.82A2.988,2.988,0,0,0,9.18,3H5A2.006,2.006,0,0,0,3,5V19a2.006,2.006,0,0,0,2,2H19a2.006,2.006,0,0,0,2-2V5A2.006,2.006,0,0,0,19,3ZM12,3a1,1,0,1,1-1,1A1,1,0,0,1,12,3Zm2,14H7V15h7Zm3-4H7V11H17Zm0-4H7V7H17Z" transform="translate(167 -51)" fill="#fff"/>
  </g>
</svg>
