<svg xmlns="http://www.w3.org/2000/svg" width="129.573" height="72" viewBox="0 0 129.573 72">
  <g id="Home_Button" transform="translate(-10 -61)">
    <g id="Light_Tabs_Î©Elements_6_States_Text_Icon_Active" data-name="Light ðŸŒ•/Tabs/Î©Elements/(6 States) Text + Icon /Active" transform="translate(10 61)">
      <g id="Group_9" data-name="Group 9">
        <g id="Group_8" data-name="Group 8">
          <path id="Primary" d="M0,0H129.573V72H0Z" fill="rgba(152,36,37,0)"/>
        </g>
        <path id="_Caption" data-name="âœï¸ Caption" d="M-12.876-5.556c0-1.872,0-2.208.024-2.592.024-.42.12-.624.444-.684a1.784,1.784,0,0,1,.3-.036c.048,0,.1-.024.1-.072,0-.072-.06-.1-.192-.1-.36,0-1.116.036-1.176.036s-.816-.036-1.356-.036c-.132,0-.192.024-.192.1,0,.048.048.072.1.072a2.244,2.244,0,0,1,.408.036c.4.084.492.276.516.684.024.384.024.72.024,2.592V-5.3a.063.063,0,0,1-.072.072h-5.088a.063.063,0,0,1-.072-.072v-.252c0-1.872,0-2.208.024-2.592.024-.42.12-.624.444-.684a1.784,1.784,0,0,1,.3-.036c.048,0,.1-.024.1-.072,0-.072-.06-.1-.192-.1-.36,0-1.116.036-1.176.036s-.816-.036-1.356-.036c-.132,0-.192.024-.192.1,0,.048.048.072.1.072a2.244,2.244,0,0,1,.408.036c.4.084.492.276.516.684.024.384.024.72.024,2.592v2.112c0,1.152,0,2.1-.06,2.6-.048.348-.108.612-.348.66a1.853,1.853,0,0,1-.36.048c-.072,0-.1.036-.1.072,0,.072.06.1.192.1C-20.436.036-19.68,0-19.62,0s.816.036,1.476.036c.132,0,.192-.036.192-.1,0-.036-.024-.072-.1-.072a5.234,5.234,0,0,1-.54-.048c-.36-.048-.432-.312-.468-.66-.06-.5-.06-1.452-.06-2.6V-4.7a.063.063,0,0,1,.072-.072h5.088a.069.069,0,0,1,.072.072v1.26c0,1.152,0,2.1-.06,2.6-.048.348-.108.612-.348.66a1.853,1.853,0,0,1-.36.048c-.072,0-.1.036-.1.072,0,.072.06.1.192.1C-14.2.036-13.44,0-13.38,0s.816.036,1.476.036c.132,0,.192-.036.192-.1,0-.036-.024-.072-.1-.072a5.234,5.234,0,0,1-.54-.048c-.36-.048-.432-.312-.468-.66-.06-.5-.06-1.452-.06-2.6Zm3.444,1.044A4.5,4.5,0,0,0-4.776.2,4.71,4.71,0,0,0,.012-4.7,4.373,4.373,0,0,0-4.7-9.2,4.645,4.645,0,0,0-9.432-4.512Zm1.14-.336c0-2.628,1.5-3.948,3.5-3.948,1.9,0,3.648,1.548,3.648,4.428,0,3.492-2.232,4.116-3.312,4.116C-6.612-.252-8.292-2.052-8.292-4.848ZM11.76-8.88c-.024-.228-.06-.324-.144-.324s-.132.084-.18.192L7.908-1.476,4.236-9.024c-.06-.132-.108-.18-.18-.18s-.12.084-.132.216L3.06-1.164c-.048.456-.084.924-.48,1a1.542,1.542,0,0,1-.36.036c-.06,0-.12.024-.12.06,0,.084.084.108.2.108C2.628.036,3.2,0,3.312,0s.672.036,1.116.036c.144,0,.216-.024.216-.108,0-.036-.048-.06-.1-.06a2.212,2.212,0,0,1-.456-.06A.384.384,0,0,1,3.78-.564c0-.2,0-.42.012-.612l.48-5.568H4.32C4.452-6.42,5.8-3.54,5.9-3.324c.06.12,1.092,2.2,1.4,2.784.228.432.288.552.372.552.108,0,.144-.108.4-.636l2.94-6.24h.036l.576,6.192c.024.216.012.42-.048.432S11.5-.2,11.5-.156s.06.1.336.12c.444.036,1.74.072,2,.072.144,0,.252-.036.252-.108,0-.048-.036-.06-.1-.06a2.6,2.6,0,0,1-.78-.108c-.516-.168-.6-.84-.648-1.272Zm5.316,5.436c0,1.152,0,2.1-.06,2.6-.048.348-.108.612-.348.66a1.853,1.853,0,0,1-.36.048c-.072,0-.1.036-.1.072,0,.072.06.1.192.1.18,0,.456-.024.7-.024S17.556,0,17.58,0c.18,0,.468.012.936.036s1.128.036,2.028.036c.468,0,.564,0,.648-.312.06-.252.156-1.068.156-1.164s0-.18-.072-.18-.084.048-.108.18c-.084.492-.228.732-.54.864a3.442,3.442,0,0,1-1.152.132c-1.176,0-1.356-.156-1.392-.984-.012-.252,0-1.644,0-2.052V-4.5a.076.076,0,0,1,.084-.084c.2,0,1.392.024,1.716.06.468.048.576.252.624.42a1.225,1.225,0,0,1,.048.4c0,.06.024.108.084.108.084,0,.084-.132.084-.228s.024-.528.048-.768c.036-.4.1-.6.1-.672s-.024-.1-.06-.1-.1.06-.18.156c-.108.12-.276.144-.564.168s-1.752.024-1.908.024c-.06,0-.072-.036-.072-.12V-8.448c0-.084.024-.12.072-.12.132,0,1.44.012,1.644.036.648.072.768.216.852.408a1.288,1.288,0,0,1,.072.432c0,.1.024.156.1.156.048,0,.072-.072.084-.132.024-.144.048-.672.06-.792.036-.336.1-.48.1-.564,0-.06-.012-.108-.048-.108-.06,0-.108.048-.168.06a3.2,3.2,0,0,1-.516.06C20.052-9,17.664-9,17.58-9l-.492-.024c-.264-.012-.588-.012-.864-.012-.132,0-.192.024-.192.1,0,.048.048.072.1.072a2.244,2.244,0,0,1,.408.036c.4.084.492.276.516.684.024.384.024.72.024,2.592Z" transform="translate(66 56)" fill="#fff"/>
        <path id="ic_home_24px" d="M10,20V14h4v6h5V12h3L12,3,2,12H5v8Z" transform="translate(53.208 13)" fill="#fff"/>
      </g>
    </g>
  </g>
</svg>
