<svg xmlns="http://www.w3.org/2000/svg" width="129.573" height="72" viewBox="0 0 129.573 72">
  <g id="Reminders_Button" transform="translate(-283 -854)">
    <g id="Reminders_Button-2" data-name="Reminders_Button" transform="translate(217 705)">
      <g id="Light_Tabs_Î©Elements_6_States_Text_Icon_Active" data-name="Light ðŸŒ•/Tabs/Î©Elements/(6 States) Text + Icon /Active" transform="translate(10 61)">
        <g id="Group_9" data-name="Group 9">
          <g id="Group_18" data-name="Group 18" transform="translate(56 88)">
            <g id="Group_8" data-name="Group 8">
              <path id="Primary" d="M0,0H129.573V72H0Z" fill="rgba(152,36,37,0)"/>
            </g>
            <path id="_Caption" data-name="âœï¸ Caption" d="M-41.016-3.444c0,1.152,0,2.1-.06,2.6-.048.348-.108.612-.348.66a1.853,1.853,0,0,1-.36.048c-.072,0-.1.036-.1.072,0,.072.06.1.192.1.36,0,1.116-.036,1.128-.036.06,0,.816.036,1.476.036.132,0,.192-.036.192-.1,0-.036-.024-.072-.1-.072a5.234,5.234,0,0,1-.54-.048c-.36-.048-.432-.312-.468-.66-.06-.5-.06-1.452-.06-2.6v-.288c0-.06.024-.1.084-.1L-38.5-3.8a.193.193,0,0,1,.156.072c.24.312.8,1.116,1.308,1.776a6.262,6.262,0,0,0,1.62,1.764,2.442,2.442,0,0,0,1.284.228h.852c.216,0,.288-.024.288-.1,0-.036-.048-.072-.108-.072a2.878,2.878,0,0,1-.468-.036,2.482,2.482,0,0,1-1.464-.864c-.7-.744-1.512-1.812-2.5-3.072a3.7,3.7,0,0,0,1.452-2.772A2.1,2.1,0,0,0-36.9-8.508a3.7,3.7,0,0,0-2.2-.528c-.372,0-1.284.036-1.416.036-.06,0-.816-.036-1.356-.036-.132,0-.192.024-.192.1,0,.048.048.072.1.072a2.244,2.244,0,0,1,.408.036c.4.084.492.276.516.684.024.384.024.72.024,2.592Zm.96-4.992a.145.145,0,0,1,.1-.144,3.623,3.623,0,0,1,.8-.072c1.284,0,2.076.9,2.076,2.4A2.191,2.191,0,0,1-37.812-4.4a1.554,1.554,0,0,1-.9.228,3.307,3.307,0,0,1-1.26-.192.157.157,0,0,1-.084-.144Zm8.928,4.992c0,1.152,0,2.1-.06,2.6-.048.348-.108.612-.348.66a1.853,1.853,0,0,1-.36.048c-.072,0-.1.036-.1.072,0,.072.06.1.192.1.18,0,.456-.024.7-.024s.456-.012.48-.012c.18,0,.468.012.936.036s1.128.036,2.028.036c.468,0,.564,0,.648-.312.06-.252.156-1.068.156-1.164s0-.18-.072-.18-.084.048-.108.18c-.084.492-.228.732-.54.864a3.442,3.442,0,0,1-1.152.132c-1.176,0-1.356-.156-1.392-.984-.012-.252,0-1.644,0-2.052V-4.5a.076.076,0,0,1,.084-.084c.2,0,1.392.024,1.716.06.468.048.576.252.624.42a1.225,1.225,0,0,1,.048.4c0,.06.024.108.084.108.084,0,.084-.132.084-.228s.024-.528.048-.768c.036-.4.1-.6.1-.672s-.024-.1-.06-.1-.1.06-.18.156c-.108.12-.276.144-.564.168s-1.752.024-1.908.024c-.06,0-.072-.036-.072-.12V-8.448c0-.084.024-.12.072-.12.132,0,1.44.012,1.644.036.648.072.768.216.852.408a1.288,1.288,0,0,1,.072.432c0,.1.024.156.1.156.048,0,.072-.072.084-.132.024-.144.048-.672.06-.792.036-.336.1-.48.1-.564,0-.06-.012-.108-.048-.108-.06,0-.108.048-.168.06a3.2,3.2,0,0,1-.516.06C-28.152-9-30.54-9-30.624-9l-.492-.024c-.264-.012-.588-.012-.864-.012-.132,0-.192.024-.192.1,0,.048.048.072.1.072a2.244,2.244,0,0,1,.408.036c.4.084.492.276.516.684.024.384.024.72.024,2.592ZM-14.844-8.88c-.024-.228-.06-.324-.144-.324s-.132.084-.18.192L-18.7-1.476l-3.672-7.548c-.06-.132-.108-.18-.18-.18s-.12.084-.132.216l-.864,7.824c-.048.456-.084.924-.48,1a1.542,1.542,0,0,1-.36.036c-.06,0-.12.024-.12.06,0,.084.084.108.2.108.324,0,.9-.036,1.008-.036s.672.036,1.116.036c.144,0,.216-.024.216-.108,0-.036-.048-.06-.1-.06a2.212,2.212,0,0,1-.456-.06.384.384,0,0,1-.312-.372c0-.2,0-.42.012-.612l.48-5.568h.048c.132.324,1.476,3.2,1.584,3.42.06.12,1.092,2.2,1.4,2.784.228.432.288.552.372.552.108,0,.144-.108.4-.636l2.94-6.24h.036l.576,6.192c.024.216.012.42-.048.432s-.084.036-.084.084.06.1.336.12c.444.036,1.74.072,2,.072.144,0,.252-.036.252-.108,0-.048-.036-.06-.1-.06a2.6,2.6,0,0,1-.78-.108c-.516-.168-.6-.84-.648-1.272ZM-8.52-5.556c0-1.872,0-2.208.024-2.592.024-.42.12-.624.444-.684a1.784,1.784,0,0,1,.3-.036c.048,0,.1-.024.1-.072,0-.072-.06-.1-.192-.1-.36,0-1.116.036-1.176.036s-.816-.036-1.212-.036c-.132,0-.192.024-.192.1,0,.048.048.072.1.072a1.575,1.575,0,0,1,.372.048c.264.06.384.264.408.672.024.384.024.72.024,2.592v2.112c0,1.152,0,2.1-.06,2.6-.048.348-.108.612-.348.66a1.853,1.853,0,0,1-.36.048c-.072,0-.1.036-.1.072,0,.072.06.1.192.1C-9.84.036-9.084,0-9.024,0s.816.036,1.476.036c.132,0,.192-.036.192-.1,0-.036-.024-.072-.1-.072a5.234,5.234,0,0,1-.54-.048c-.36-.048-.432-.312-.468-.66-.06-.5-.06-1.452-.06-2.6Zm5.28-1.788C-2.856-6.912-1.5-5.4-.108-3.9c1.272,1.368,3,3.132,3.132,3.252C3.66-.012,3.8.12,3.9.12s.108-.06.108-.852l.024-7.032c0-.72.048-.984.444-1.068a1.058,1.058,0,0,1,.288-.036c.084,0,.132-.036.132-.084,0-.072-.084-.084-.216-.084-.492,0-.888.036-1.02.036s-.708-.036-1.248-.036c-.144,0-.24.012-.24.084,0,.048.012.084.1.084a3.2,3.2,0,0,1,.588.06c.372.1.456.36.468,1.14l.132,6.1c-.384-.4-1.692-1.86-2.88-3.132C-1.272-6.684-3.06-8.616-3.24-8.82c-.12-.12-.324-.384-.42-.384s-.132.132-.132.6L-3.8-1.728c0,1.092-.06,1.44-.36,1.524a1.722,1.722,0,0,1-.492.072c-.06,0-.1.024-.1.072,0,.084.072.1.192.1C-4.02.036-3.516,0-3.408,0s.588.036,1.272.036c.144,0,.216-.024.216-.1,0-.048-.036-.072-.1-.072a2.631,2.631,0,0,1-.6-.072C-2.94-.3-3.06-.612-3.084-1.6ZM8.8-3.444c0,1.152,0,2.1-.06,2.6-.048.348-.108.612-.348.66a1.853,1.853,0,0,1-.36.048c-.072,0-.1.036-.1.072,0,.072.06.1.192.1.18,0,.456-.024.7-.024S9.276,0,9.3,0c.06,0,.468.036,1,.072s1.152.072,1.668.072A4.767,4.767,0,0,0,15.6-1.236,4.905,4.905,0,0,0,16.9-4.62a4.287,4.287,0,0,0-1.164-3.048C14.3-9.144,12.108-9.036,10.92-9.036,10.2-9.036,9.444-9,9.3-9c-.06,0-.816-.036-1.356-.036-.132,0-.192.024-.192.1,0,.048.048.072.1.072a2.244,2.244,0,0,1,.408.036c.4.084.492.276.516.684.024.384.024.72.024,2.592ZM9.8-5.748c0-.924,0-2.148.012-2.556a.217.217,0,0,1,.144-.24,3.2,3.2,0,0,1,.78-.084,4.934,4.934,0,0,1,3.924,1.356,4.292,4.292,0,0,1,1.152,3.024,4.2,4.2,0,0,1-.96,2.868A4.027,4.027,0,0,1,12-.264c-1.416,0-1.884-.252-2.04-.48a2.62,2.62,0,0,1-.132-.912C9.816-1.884,9.8-2.988,9.8-4.26Zm10.716,2.3c0,1.152,0,2.1-.06,2.6-.048.348-.108.612-.348.66a1.853,1.853,0,0,1-.36.048c-.072,0-.1.036-.1.072,0,.072.06.1.192.1.18,0,.456-.024.7-.024S21,0,21.024,0c.18,0,.468.012.936.036s1.128.036,2.028.036c.468,0,.564,0,.648-.312.06-.252.156-1.068.156-1.164s0-.18-.072-.18-.084.048-.108.18c-.084.492-.228.732-.54.864a3.442,3.442,0,0,1-1.152.132c-1.176,0-1.356-.156-1.392-.984-.012-.252,0-1.644,0-2.052V-4.5a.076.076,0,0,1,.084-.084c.2,0,1.392.024,1.716.06.468.048.576.252.624.42a1.225,1.225,0,0,1,.048.4c0,.06.024.108.084.108.084,0,.084-.132.084-.228s.024-.528.048-.768c.036-.4.1-.6.1-.672s-.024-.1-.06-.1-.1.06-.18.156c-.108.12-.276.144-.564.168s-1.752.024-1.908.024c-.06,0-.072-.036-.072-.12V-8.448c0-.084.024-.12.072-.12.132,0,1.44.012,1.644.036.648.072.768.216.852.408a1.288,1.288,0,0,1,.072.432c0,.1.024.156.1.156.048,0,.072-.072.084-.132.024-.144.048-.672.06-.792.036-.336.1-.48.1-.564,0-.06-.012-.108-.048-.108-.06,0-.108.048-.168.06a3.2,3.2,0,0,1-.516.06C23.5-9,21.108-9,21.024-9l-.492-.024c-.264-.012-.588-.012-.864-.012-.132,0-.192.024-.192.1,0,.048.048.072.1.072a2.244,2.244,0,0,1,.408.036c.4.084.492.276.516.684.024.384.024.72.024,2.592Zm8.16,0c0,1.152,0,2.1-.06,2.6-.048.348-.108.612-.348.66a1.853,1.853,0,0,1-.36.048c-.072,0-.1.036-.1.072,0,.072.06.1.192.1.36,0,1.116-.036,1.128-.036.06,0,.816.036,1.476.036.132,0,.192-.036.192-.1,0-.036-.024-.072-.1-.072a5.234,5.234,0,0,1-.54-.048c-.36-.048-.432-.312-.468-.66-.06-.5-.06-1.452-.06-2.6v-.288c0-.06.024-.1.084-.1L31.2-3.8a.193.193,0,0,1,.156.072c.24.312.8,1.116,1.308,1.776a6.262,6.262,0,0,0,1.62,1.764,2.442,2.442,0,0,0,1.284.228h.852c.216,0,.288-.024.288-.1,0-.036-.048-.072-.108-.072a2.878,2.878,0,0,1-.468-.036,2.482,2.482,0,0,1-1.464-.864c-.7-.744-1.512-1.812-2.5-3.072a3.7,3.7,0,0,0,1.452-2.772A2.1,2.1,0,0,0,32.8-8.508a3.7,3.7,0,0,0-2.2-.528c-.372,0-1.284.036-1.416.036-.06,0-.816-.036-1.356-.036-.132,0-.192.024-.192.1,0,.048.048.072.1.072a2.244,2.244,0,0,1,.408.036c.4.084.492.276.516.684.024.384.024.72.024,2.592Zm.96-4.992a.145.145,0,0,1,.1-.144,3.623,3.623,0,0,1,.8-.072c1.284,0,2.076.9,2.076,2.4A2.191,2.191,0,0,1,31.884-4.4a1.554,1.554,0,0,1-.9.228,3.307,3.307,0,0,1-1.26-.192.157.157,0,0,1-.084-.144ZM39.288.2A3.156,3.156,0,0,0,41.1-.3a2.486,2.486,0,0,0,1.02-1.992c0-.96-.336-1.7-1.752-2.82l-.336-.264c-1.152-.9-1.464-1.332-1.464-2.016a1.364,1.364,0,0,1,1.476-1.392c1.1,0,1.428.5,1.5.636a2.109,2.109,0,0,1,.156.6c.012.1.024.156.1.156s.084-.084.084-.276c0-.816.048-1.212.048-1.272s-.024-.084-.12-.084a1.963,1.963,0,0,1-.42-.06,4.654,4.654,0,0,0-1.116-.12,2.2,2.2,0,0,0-2.484,2.16c0,.816.288,1.56,1.56,2.6l.54.444c1.032.852,1.38,1.332,1.38,2.16a1.6,1.6,0,0,1-1.716,1.6,1.632,1.632,0,0,1-1.776-1.224,2.114,2.114,0,0,1-.036-.444c0-.1-.012-.132-.084-.132s-.084.06-.1.192c-.012.192-.06.672-.06,1.272,0,.324.012.372.18.456A3.641,3.641,0,0,0,39.288.2Z" transform="translate(66 56)" fill="#fff"/>
            <path id="_Color" data-name=" â†³Color" d="M8,19.5a2,2,0,0,1-2-2h4A2,2,0,0,1,8,19.5Zm8-3H0v-1l2-2v-5A7.1,7.1,0,0,1,3.174,4.44,5.522,5.522,0,0,1,6.5,2.18V1.5a1.5,1.5,0,0,1,3,0v.68a5.529,5.529,0,0,1,3.322,2.264A7.085,7.085,0,0,1,14,8.5v5l2,2v1Z" transform="translate(58 16.5)" fill="#fff"/>
          </g>
        </g>
      </g>
    </g>
  </g>
</svg>
