<svg xmlns="http://www.w3.org/2000/svg" width="243.075" height="45.461" viewBox="0 0 243.075 45.461">
  <g id="Youth_Corps_Directory_Name" transform="translate(-241.702 42.786)">
    <path id="Path_12" data-name="Path 12" d="M-116.253-10.045c0,3.36,0,6.125-.175,7.6-.14,1.015-.315,1.785-1.015,1.925a5.4,5.4,0,0,1-1.05.14c-.21,0-.28.105-.28.21,0,.21.175.28.56.28.525,0,1.33-.07,2.03-.07.735-.035,1.33-.035,1.4-.035.175,0,1.365.105,2.905.21,1.5.105,3.36.21,4.865.21,5.95,0,9.1-2.45,10.605-4.025a14.306,14.306,0,0,0,3.78-9.87,12.5,12.5,0,0,0-3.4-8.89c-4.165-4.3-10.57-3.99-14.035-3.99-2.1,0-4.305.1-4.725.1-.175,0-2.38-.1-3.955-.1-.385,0-.56.07-.56.28,0,.14.14.21.28.21a6.546,6.546,0,0,1,1.19.1c1.155.245,1.435.805,1.505,2,.07,1.12.07,2.1.07,7.56Zm2.94-6.72c0-2.695,0-6.265.035-7.455a.634.634,0,0,1,.42-.7,9.347,9.347,0,0,1,2.275-.245c4.165,0,8.155.49,11.445,3.955a12.52,12.52,0,0,1,3.36,8.82c0,3.22-.98,6.58-2.8,8.365a11.746,11.746,0,0,1-8.33,3.255c-4.13,0-5.5-.735-5.95-1.4a7.641,7.641,0,0,1-.385-2.66c-.035-.665-.07-3.885-.07-7.6ZM-77.3-13.79c0-4.62,0-5.46.035-6.405.07-1.05.245-1.47,1.085-1.645a3.435,3.435,0,0,1,.77-.07.3.3,0,0,0,.245-.245c0-.175-.14-.245-.49-.245-.945,0-2.94.07-3.08.07-.175,0-2.1-.07-3.115-.07-.35,0-.49.07-.49.245a.263.263,0,0,0,.245.245,5.5,5.5,0,0,1,.945.105c.665.14.91.595.98,1.61.07.945.07,1.785.07,6.405v5.25c0,2.87-.035,5.215-.175,6.44-.105.875-.21,1.435-.805,1.575a4.406,4.406,0,0,1-.945.14.238.238,0,0,0-.245.245c0,.175.175.245.49.245.945,0,2.87-.105,3.045-.105.14,0,2.135.105,3.85.105.35,0,.49-.105.49-.245a.238.238,0,0,0-.245-.245,12.524,12.524,0,0,1-1.4-.14c-.91-.14-1.015-.7-1.12-1.575-.14-1.225-.14-3.57-.14-6.44Zm15.365,5.25a60.743,60.743,0,0,1-.175,6.44c-.14.875-.21,1.435-.805,1.575a4.406,4.406,0,0,1-.945.14A.238.238,0,0,0-64.1-.14c0,.175.175.245.49.245C-62.668.105-60.6,0-60.568,0c.14,0,2.1.105,3.78.105.35,0,.49-.105.49-.245a.219.219,0,0,0-.245-.245,11.277,11.277,0,0,1-1.365-.14c-.945-.14-1.12-.7-1.225-1.575-.14-1.225-.14-3.535-.14-6.4v-.7c0-.175.07-.245.21-.245l3.92.07a.471.471,0,0,1,.42.175c.665.8,2.03,2.73,3.325,4.34,1.75,2.24,2.87,3.675,4.2,4.375a6.207,6.207,0,0,0,3.29.6h1.925c.56,0,.735-.07.735-.245a.271.271,0,0,0-.28-.245,5.661,5.661,0,0,1-1.085-.1c-.77-.105-1.785-.385-3.43-2.065-1.785-1.855-3.92-4.55-6.44-7.7,2.87-2.45,3.78-4.585,3.78-6.79a5.219,5.219,0,0,0-2.135-4.06c-1.61-1.12-3.78-1.3-5.74-1.3-.945,0-3.535.07-3.85.07-.175,0-2.24-.07-3.64-.07-.35,0-.49.07-.49.245a.3.3,0,0,0,.245.245,9.911,9.911,0,0,1,1.05.07c1.015.14,1.19.63,1.26,1.645.07.945.07,1.785.07,6.405Zm2.66-12.285a.381.381,0,0,1,.245-.35,13.426,13.426,0,0,1,2.2-.175c3.29,0,5.32,2.135,5.32,5.845,0,2.275-.805,3.85-1.855,4.55a4,4,0,0,1-2.31.525,10.437,10.437,0,0,1-3.4-.455.439.439,0,0,1-.21-.385ZM-33.163-8.54a60.743,60.743,0,0,1-.175,6.44c-.14.875-.21,1.47-.805,1.575a8.793,8.793,0,0,1-.945.14.238.238,0,0,0-.245.245c0,.175.175.245.49.245.49,0,1.19-.035,1.785-.07C-32.393,0-31.8,0-31.728,0c.455,0,1.26,0,2.555.07,1.26.035,3.045.105,5.355.105,1.19,0,1.505,0,1.715-.77a24.661,24.661,0,0,0,.42-2.87c0-.21-.035-.455-.21-.455s-.245.105-.315.455a2.257,2.257,0,0,1-1.4,2.065,10.255,10.255,0,0,1-3.08.315c-3.045,0-3.6-.385-3.675-2.38-.035-.595,0-4.06,0-5.075v-2.485a.184.184,0,0,1,.21-.21c.525,0,3.815.035,4.655.14,1.19.14,1.47.49,1.575.91a2.64,2.64,0,0,1,.14.98c0,.175.07.28.21.28.21,0,.28-.315.28-.56,0-.21.07-1.33.14-1.925a16.224,16.224,0,0,1,.245-1.645c0-.175-.07-.245-.175-.245s-.245.175-.455.385c-.315.315-.77.35-1.5.42-.7.07-4.76.07-5.145.07-.175,0-.175-.1-.175-.315v-8.085c0-.21.035-.315.175-.315.35,0,3.92.035,4.445.105,1.68.21,1.995.42,2.2.91a3.262,3.262,0,0,1,.175,1.05c0,.245.07.385.245.385.14,0,.245-.175.28-.315.07-.35.14-1.68.175-1.96.07-.84.245-1.19.245-1.4,0-.14-.035-.28-.14-.28a1.973,1.973,0,0,0-.42.14c-.245.035-.805.14-1.4.175-.7.035-7.14,0-7.35,0-.175,0-2.17-.07-3.57-.07-.35,0-.49.07-.49.245a.3.3,0,0,0,.245.245,9.911,9.911,0,0,1,1.05.07c1.015.14,1.19.63,1.26,1.645.07.945.07,1.785.07,6.405ZM1.768.49A18.211,18.211,0,0,0,7.333-.175c.525-.21.6-.315.77-.875a31.212,31.212,0,0,0,.735-3.815c0-.21-.14-.42-.28-.42-.21,0-.245.105-.315.42A5.546,5.546,0,0,1,7.053-2.38C5.828-1.155,4.288-.98,1.978-.98a10.812,10.812,0,0,1-11.1-10.78c0-3.01.49-5.67,2.765-7.77C-5.267-20.545-3.377-21.6.578-21.6A10.02,10.02,0,0,1,6.633-19.95a3.876,3.876,0,0,1,1.3,2.975c0,.42.035.63.245.63.175,0,.315-.175.35-.63.035-.42.035-2.065.07-3.045.07-1.085.14-1.435.14-1.68,0-.175-.07-.315-.385-.315A22.038,22.038,0,0,1,5.2-22.47a30.226,30.226,0,0,0-4.48-.35c-4.725,0-7.525,1.4-9.38,3.185a11.75,11.75,0,0,0-3.465,8.12A11.162,11.162,0,0,0-8.382-2.7C-5.967-.6-2.852.49,1.768.49Zm26.18-21.525,3.85.07c2.94.07,3.6.735,3.71,1.645l.035.315c.035.42.105.525.245.525s.28-.14.28-.385c0-.35.105-2.485.105-3.4,0-.175,0-.35-.14-.35s-.42.07-.875.14a15.309,15.309,0,0,1-2.205.14H21.332c-.35,0-1.54-.035-2.415-.14a10.713,10.713,0,0,1-1.365-.35c-.1,0-.245.385-.315.56-.035.245-.665,2.905-.665,3.22a.233.233,0,0,0,.21.245c.14,0,.245-.035.315-.28a4.827,4.827,0,0,1,.49-.945c.455-.7,1.19-.91,3.115-.945l4.445-.07V-8.54c0,2.87,0,5.215-.14,6.44-.1.875-.28,1.47-.91,1.61a4.1,4.1,0,0,1-.91.14c-.175,0-.245.105-.245.21,0,.175.14.245.49.245.91,0,3.045-.105,3.185-.105.175,0,2.135.105,3.815.105.35,0,.49-.105.49-.245a.219.219,0,0,0-.245-.245,11.781,11.781,0,0,1-1.4-.14c-.945-.14-1.085-.7-1.19-1.575-.14-1.225-.14-3.57-.14-6.44ZM43.522-11.2c0,5.355,3.6,11.69,12.04,11.69A11.921,11.921,0,0,0,67.917-11.655c0-6.93-5.25-11.165-12.18-11.165A11.783,11.783,0,0,0,43.522-11.2Zm3.185-.805c0-6.475,3.71-9.695,8.855-9.695,4.865,0,9.205,3.745,9.205,10.885,0,8.61-5.565,10.08-8.33,10.08C50.872-.735,46.707-5.075,46.707-12.005Zm32.9,3.465a60.742,60.742,0,0,1-.175,6.44c-.14.875-.21,1.435-.805,1.575a4.406,4.406,0,0,1-.945.14.238.238,0,0,0-.245.245c0,.175.175.245.49.245.945,0,3.01-.105,3.045-.105.14,0,2.1.105,3.78.105.35,0,.49-.105.49-.245A.219.219,0,0,0,85-.385a11.277,11.277,0,0,1-1.365-.14c-.945-.14-1.12-.7-1.225-1.575-.14-1.225-.14-3.535-.14-6.4v-.7c0-.175.07-.245.21-.245l3.92.07a.471.471,0,0,1,.42.175c.665.8,2.03,2.73,3.325,4.34,1.75,2.24,2.87,3.675,4.2,4.375a6.207,6.207,0,0,0,3.29.6h1.925c.56,0,.735-.07.735-.245a.271.271,0,0,0-.28-.245,5.661,5.661,0,0,1-1.085-.1c-.77-.105-1.785-.385-3.43-2.065-1.785-1.855-3.92-4.55-6.44-7.7,2.87-2.45,3.78-4.585,3.78-6.79a5.219,5.219,0,0,0-2.135-4.06c-1.61-1.12-3.78-1.3-5.74-1.3-.945,0-3.535.07-3.85.07-.175,0-2.24-.07-3.64-.07-.35,0-.49.07-.49.245a.3.3,0,0,0,.245.245,9.911,9.911,0,0,1,1.05.07c1.015.14,1.19.63,1.26,1.645.07.945.07,1.785.07,6.405Zm2.66-12.285a.381.381,0,0,1,.245-.35,13.426,13.426,0,0,1,2.205-.175c3.29,0,5.32,2.135,5.32,5.845,0,2.275-.805,3.85-1.855,4.55a4,4,0,0,1-2.31.525,10.437,10.437,0,0,1-3.4-.455.439.439,0,0,1-.21-.385Zm28.98,15.75c0,.49,0,1.75-.07,2.975-.07.875-.28,1.435-.91,1.575a4.1,4.1,0,0,1-.91.14.238.238,0,0,0-.245.245c0,.175.14.245.49.245.91,0,2.87-.105,3.01-.105.175,0,2.17.105,3.885.105.315,0,.49-.105.49-.245a.238.238,0,0,0-.245-.245,11.781,11.781,0,0,1-1.4-.14c-.91-.14-1.12-.7-1.19-1.575-.105-1.225-.105-2.485-.105-2.975V-7.63a5.952,5.952,0,0,1,.385-2.975c.63-1.26,4.97-8.26,5.985-9.45a5.346,5.346,0,0,1,1.54-1.47,3.153,3.153,0,0,1,1.435-.385.357.357,0,0,0,.385-.315c0-.1-.175-.175-.385-.175-.6,0-2.8.07-3.01.07-.245,0-1.33-.07-2.135-.07-.315,0-.49.07-.49.175,0,.14.175.28.455.35.35.1.49.35.49.77a3.171,3.171,0,0,1-.525,1.54c-.56.98-4.41,7.35-5.04,8.61l-5.6-9.275a2.443,2.443,0,0,1-.42-1.155c0-.245.14-.385.385-.49.28-.105.49-.21.49-.315,0-.14-.07-.21-.42-.21-1.19,0-2.45.07-2.66.07-.14,0-2.45-.07-3.045-.07-.28,0-.385.07-.385.21a.309.309,0,0,0,.315.28,3.029,3.029,0,0,1,1.295.42,7.721,7.721,0,0,1,2.03,2.17c1.05,1.575,5.215,8.19,5.46,8.645a5.306,5.306,0,0,1,.665,3.045Z" transform="translate(361 2.185)" fill="#f3e4e4"/>
    <path id="Path_11" data-name="Path 11" d="M34.32,10.79c0,.208,0,.754-.039,1.3-.026.377-.143.663-.4.715a2.007,2.007,0,0,1-.39.052c-.078,0-.1.039-.1.078,0,.078.065.1.208.1.39,0,1.209-.039,1.274-.039s.884.039,1.6.039c.143,0,.208-.039.208-.1,0-.039-.026-.078-.1-.078a5.67,5.67,0,0,1-.585-.052c-.39-.052-.507-.338-.533-.715-.039-.546-.039-1.092-.039-1.3V9.672a3.11,3.11,0,0,1,.195-1.3A41.43,41.43,0,0,1,38.09,4.238a2.476,2.476,0,0,1,.689-.663,1.238,1.238,0,0,1,.6-.182c.1,0,.169-.039.169-.1s-.078-.078-.169-.078c-.247,0-1.183.039-1.261.039-.1,0-.52-.039-.858-.039-.13,0-.208.026-.208.078s.078.091.195.13c.156.039.208.182.208.364a1.269,1.269,0,0,1-.221.663c-.26.429-1.911,3.276-2.158,3.822-.234-.377-2.184-3.731-2.392-4.108a1.109,1.109,0,0,1-.169-.507.263.263,0,0,1,.169-.234c.117-.052.195-.065.195-.117s-.026-.091-.169-.091c-.507,0-1,.039-1.092.039-.065,0-1.04-.039-1.287-.039-.117,0-.169.039-.169.091s.065.091.13.091a1.244,1.244,0,0,1,.559.208,3.641,3.641,0,0,1,.884.962c.455.676,2.2,3.536,2.288,3.744a2.757,2.757,0,0,1,.3,1.365ZM44.46,8.84a4.238,4.238,0,0,0,4.472,4.342,4.428,4.428,0,0,0,4.589-4.511c0-2.574-1.95-4.147-4.524-4.147A4.377,4.377,0,0,0,44.46,8.84Zm1.183-.3c0-2.405,1.378-3.6,3.289-3.6,1.807,0,3.419,1.391,3.419,4.043,0,3.2-2.067,3.744-3.094,3.744C47.19,12.727,45.643,11.115,45.643,8.541ZM60.879,9.5a3.571,3.571,0,0,0,1,2.9,3.569,3.569,0,0,0,2.379.78,3.461,3.461,0,0,0,2.392-.806,4.252,4.252,0,0,0,1.066-3.315V7.878c0-1.716-.013-2.028.013-2.379s.091-.546.4-.611a1.336,1.336,0,0,1,.286-.026.1.1,0,0,0,.091-.091c0-.065-.052-.091-.182-.091-.338,0-.884.026-.962.026s-.728-.026-1.235-.026c-.13,0-.182.026-.182.091a.1.1,0,0,0,.091.091,3.682,3.682,0,0,1,.39.026c.377.052.442.26.455.611s.026.663.026,2.379V9.269a4.074,4.074,0,0,1-.65,2.678,2.347,2.347,0,0,1-1.768.78,2.229,2.229,0,0,1-1.7-.6c-.494-.442-.845-1.1-.845-2.7V7.878c0-1.716,0-2.028.026-2.379s.091-.559.39-.611a1.336,1.336,0,0,1,.286-.026.112.112,0,0,0,.1-.091c0-.065-.065-.091-.2-.091-.338,0-1.053.026-1.157.026s-.793-.026-1.313-.026c-.13,0-.182.026-.182.091A.11.11,0,0,0,60,4.862a3.681,3.681,0,0,1,.39.026c.377.052.442.26.468.611s.026.663.026,2.379Zm17.8-4.316,1.43.026c1.092.026,1.339.273,1.378.611l.013.117c.013.156.039.2.091.2s.1-.052.1-.143c0-.13.039-.923.039-1.261,0-.065,0-.13-.052-.13s-.156.026-.325.052a5.686,5.686,0,0,1-.819.052H76.219c-.13,0-.572-.013-.9-.052a3.979,3.979,0,0,1-.507-.13c-.039,0-.091.143-.117.208-.013.091-.247,1.079-.247,1.2a.086.086,0,0,0,.078.091c.052,0,.091-.013.117-.1a1.792,1.792,0,0,1,.182-.351c.169-.26.442-.338,1.157-.351l1.651-.026V9.828c0,1.066,0,1.937-.052,2.392-.039.325-.1.546-.338.6a1.522,1.522,0,0,1-.338.052c-.065,0-.091.039-.091.078,0,.065.052.091.182.091.338,0,1.131-.039,1.183-.039s.793.039,1.417.039c.13,0,.182-.039.182-.091a.081.081,0,0,0-.091-.091,4.376,4.376,0,0,1-.52-.052c-.351-.052-.4-.26-.442-.585-.052-.455-.052-1.326-.052-2.392ZM96.291,7.878c0-1.716,0-2.028.026-2.379.026-.39.091-.546.39-.611a1.336,1.336,0,0,1,.286-.026.112.112,0,0,0,.1-.091c0-.065-.065-.091-.195-.091-.338,0-1.066.026-1.131.026s-.793-.026-1.3-.026c-.13,0-.182.026-.182.091a.1.1,0,0,0,.091.091,3.681,3.681,0,0,1,.39.026c.377.052.429.234.455.611.013.351.026.689.026,2.405v.234c0,.065-.026.065-.065.065H90.415c-.039,0-.065,0-.065-.065V7.9c0-1.716,0-2.054.013-2.405.026-.39.091-.546.4-.611a1.276,1.276,0,0,1,.286-.026.11.11,0,0,0,.091-.091c0-.065-.052-.091-.182-.091-.351,0-1.079.026-1.131.026s-.793-.026-1.313-.026c-.13,0-.182.026-.182.091a.11.11,0,0,0,.091.091,3.682,3.682,0,0,1,.39.026c.377.052.442.234.468.611.026.351.026.663.026,2.379v1.95a22.561,22.561,0,0,1-.065,2.392c-.052.325-.078.533-.3.585a1.637,1.637,0,0,1-.351.052.088.088,0,0,0-.091.091c0,.065.065.091.182.091.351,0,1.079-.039,1.144-.039s.78.039,1.417.039c.13,0,.182-.039.182-.091a.088.088,0,0,0-.091-.091,4.652,4.652,0,0,1-.52-.052c-.338-.052-.377-.26-.416-.585-.052-.455-.052-1.3-.052-2.366V8.749c0-.052.026-.065.065-.065h4.771c.039,0,.065.013.065.065V9.854c0,1.066,0,1.9-.052,2.353-.039.325-.078.546-.312.6a1.522,1.522,0,0,1-.338.052.088.088,0,0,0-.091.091c0,.065.052.091.182.091.338,0,1.079-.039,1.131-.039s.793.039,1.417.039c.13,0,.195-.039.195-.091a.092.092,0,0,0-.1-.091,4.462,4.462,0,0,1-.507-.052c-.351-.052-.377-.26-.416-.585-.052-.455-.065-1.326-.065-2.392Zm23.335,5.343a7.53,7.53,0,0,0,2.34-.3c.234-.1.26-.13.338-.377a13.483,13.483,0,0,0,.286-1.664c0-.1-.026-.2-.091-.2s-.1.052-.13.2a2.474,2.474,0,0,1-.481,1.092,2.991,2.991,0,0,1-2.262.65,4.7,4.7,0,0,1-4.693-4.758,4.35,4.35,0,0,1,1.17-3.393,3.967,3.967,0,0,1,2.99-.949,4.329,4.329,0,0,1,2.6.741,1.8,1.8,0,0,1,.546,1.326c0,.182.013.273.1.273s.1-.078.117-.273.013-.91.039-1.339c.026-.468.065-.624.065-.728,0-.078-.026-.13-.169-.143a11.29,11.29,0,0,1-1.326-.2,11.142,11.142,0,0,0-1.885-.156,5.253,5.253,0,0,0-3.965,1.391,5.19,5.19,0,0,0-1.456,3.549,4.98,4.98,0,0,0,1.573,3.848A6,6,0,0,0,119.626,13.221Zm9.542-4.381a4.238,4.238,0,0,0,4.472,4.342,4.428,4.428,0,0,0,4.589-4.511c0-2.574-1.95-4.147-4.524-4.147A4.377,4.377,0,0,0,129.168,8.84Zm1.183-.3c0-2.405,1.378-3.6,3.289-3.6,1.807,0,3.419,1.391,3.419,4.043,0,3.2-2.067,3.744-3.094,3.744C131.9,12.727,130.351,11.115,130.351,8.541Zm15.47,1.287a22.561,22.561,0,0,1-.065,2.392c-.052.325-.078.533-.3.585a1.636,1.636,0,0,1-.351.052.088.088,0,0,0-.091.091c0,.065.065.091.182.091.351,0,1.118-.039,1.131-.039.052,0,.78.039,1.4.039.13,0,.182-.039.182-.091a.081.081,0,0,0-.091-.091,4.189,4.189,0,0,1-.507-.052c-.351-.052-.416-.26-.455-.585-.052-.455-.052-1.313-.052-2.379v-.26c0-.065.026-.091.078-.091l1.456.026a.175.175,0,0,1,.156.065c.247.3.754,1.014,1.235,1.612a5.842,5.842,0,0,0,1.56,1.625,2.305,2.305,0,0,0,1.222.221h.715c.208,0,.273-.026.273-.091a.1.1,0,0,0-.1-.091,2.159,2.159,0,0,1-1.677-.806c-.663-.689-1.456-1.69-2.392-2.86a3.229,3.229,0,0,0,1.4-2.522,1.938,1.938,0,0,0-.793-1.508,3.746,3.746,0,0,0-2.132-.481c-.351,0-1.313.026-1.43.026-.065,0-.832-.026-1.352-.026-.13,0-.182.026-.182.091a.11.11,0,0,0,.091.091,3.681,3.681,0,0,1,.39.026c.377.052.442.234.468.611.026.351.026.663.026,2.379Zm.988-4.563a.141.141,0,0,1,.091-.13,4.987,4.987,0,0,1,.819-.065A1.909,1.909,0,0,1,149.7,7.241a1.972,1.972,0,0,1-.689,1.69,1.486,1.486,0,0,1-.858.195,3.877,3.877,0,0,1-1.261-.169.163.163,0,0,1-.078-.143Zm12.948,4.563a22.561,22.561,0,0,1-.065,2.392c-.052.325-.078.533-.3.585a1.636,1.636,0,0,1-.351.052.088.088,0,0,0-.091.091c0,.065.065.091.182.091.351,0,1.092-.039,1.131-.039s.806.039,1.43.039c.13,0,.182-.039.182-.091a.088.088,0,0,0-.091-.091,4.189,4.189,0,0,1-.507-.052c-.351-.052-.416-.26-.455-.585-.052-.455-.052-1.326-.052-2.392V5.33c0-.117.026-.195.091-.208a3.868,3.868,0,0,1,.637-.078,1.946,1.946,0,0,1,1.547.533,2.245,2.245,0,0,1,.65,1.677,1.921,1.921,0,0,1-2.119,1.781c-.234,0-.3.026-.3.117a.125.125,0,0,0,.117.1,2.717,2.717,0,0,0,.325.013,2.659,2.659,0,0,0,2.951-2.639A1.863,1.863,0,0,0,164.1,5.3a2.977,2.977,0,0,0-2.184-.624c-.52,0-1.378.026-1.625.026-.091,0-.806-.026-1.326-.026-.13,0-.182.026-.182.091a.11.11,0,0,0,.091.091,3.681,3.681,0,0,1,.39.026c.377.052.442.234.468.611.026.351.026.663.026,2.379Zm13.585,3.354a3.507,3.507,0,0,0,1.82-.39,2.154,2.154,0,0,0,1.066-1.885c0-.949-.481-1.716-1.872-2.665l-.325-.221c-1.131-.767-1.482-1.17-1.482-1.872,0-.78.689-1.2,1.521-1.2,1.027,0,1.4.416,1.482.546a2.044,2.044,0,0,1,.169.546c.013.091.026.143.1.143s.091-.078.091-.247c0-.754.052-1.118.052-1.17s-.026-.078-.117-.078a1.484,1.484,0,0,1-.4-.052,5.537,5.537,0,0,0-1.183-.13c-1.508,0-2.535.78-2.535,2.08,0,.767.4,1.443,1.638,2.366l.52.39c1.014.754,1.443,1.131,1.443,1.924,0,.832-.585,1.469-1.716,1.469a1.682,1.682,0,0,1-1.807-1.092,1.658,1.658,0,0,1-.039-.4c0-.091-.039-.13-.1-.13s-.091.065-.091.182c-.013.182-.065.624-.065,1.17,0,.3.013.338.169.416A4.2,4.2,0,0,0,173.342,13.182Z" transform="translate(257 -45.815)" fill="#f3e4e4"/>
  </g>
</svg>
