<svg xmlns="http://www.w3.org/2000/svg" width="274.635" height="270" viewBox="0 0 274.635 270">
  <g id="Profile_Circle_Icon" transform="translate(-76.682 -164)">
    <g id="Profile_Circle" data-name="Profile Circle" transform="translate(76.682 164)" fill="#be4a4b">
      <path d="M137.318,0c75.838,0,137.318,60.442,137.318,135S213.156,270,137.318,270,0,209.558,0,135,61.479,0,137.318,0Z" stroke="none"/>
      <path d="M 137.3175964355469 1 C 128.0668487548828 1 118.8222351074219 1.916168212890625 109.8405303955078 3.72308349609375 C 101.0877685546875 5.483917236328125 92.47831726074219 8.111328125 84.2513427734375 11.53231811523438 C 76.17378234863281 14.89117431640625 68.38294982910156 19.04853820800781 61.09527587890625 23.88888549804688 C 53.87692260742188 28.68321228027344 47.08912658691406 34.18914794921875 40.92045593261719 40.25367736816406 C 34.75205993652344 46.31796264648438 29.15202331542969 52.99070739746094 24.27584838867188 60.08657836914062 C 19.35331726074219 67.24992370605469 15.12542724609375 74.90768432617188 11.70965576171875 82.84710693359375 C 8.230987548828125 90.93281555175781 5.559295654296875 99.39431762695312 3.768798828125 107.9965667724609 C 1.931549072265625 116.8235015869141 1 125.9087524414062 1 135 C 1 144.0912475585938 1.931549072265625 153.1764984130859 3.768798828125 162.00341796875 C 5.559295654296875 170.6056823730469 8.230987548828125 179.0671691894531 11.70965576171875 187.1528930664062 C 15.12542724609375 195.0923156738281 19.35331726074219 202.7500610351562 24.27584838867188 209.9134216308594 C 29.15202331542969 217.00927734375 34.75205993652344 223.6820373535156 40.92045593261719 229.7463226318359 C 47.08912658691406 235.8108520507812 53.87692260742188 241.3167877197266 61.09527587890625 246.1111145019531 C 68.38294982910156 250.9514617919922 76.17378234863281 255.1088256835938 84.2513427734375 258.4676818847656 C 92.47831726074219 261.888671875 101.0877685546875 264.5160827636719 109.8405303955078 266.2769165039062 C 118.8222351074219 268.0838317871094 128.0668487548828 269 137.3175964355469 269 C 146.5683441162109 269 155.8129577636719 268.0838317871094 164.794677734375 266.2769165039062 C 173.5474243164062 264.5160827636719 182.1568908691406 261.888671875 190.3838500976562 258.4676818847656 C 198.46142578125 255.1088256835938 206.2522430419922 250.9514617919922 213.5398864746094 246.1111145019531 C 220.7582702636719 241.3167877197266 227.5460662841797 235.8108520507812 233.7147369384766 229.7463226318359 C 239.8830871582031 223.6820373535156 245.4831695556641 217.00927734375 250.3593444824219 209.9134216308594 C 255.2818756103516 202.7500610351562 259.5097351074219 195.0923156738281 262.925537109375 187.1528930664062 C 266.4042053222656 179.0671691894531 269.0758666992188 170.6056823730469 270.8663940429688 162.00341796875 C 272.7036437988281 153.1764984130859 273.6351928710938 144.0912475585938 273.6351928710938 135 C 273.6351928710938 125.9087524414062 272.7036437988281 116.8235015869141 270.8663940429688 107.9965667724609 C 269.0758666992188 99.39431762695312 266.4042053222656 90.93281555175781 262.925537109375 82.84710693359375 C 259.5097351074219 74.90768432617188 255.2818756103516 67.24992370605469 250.3593444824219 60.08657836914062 C 245.4831695556641 52.99070739746094 239.8830871582031 46.31796264648438 233.7147369384766 40.25367736816406 C 227.5460662841797 34.18914794921875 220.7582702636719 28.68321228027344 213.5398864746094 23.88888549804688 C 206.2522430419922 19.04853820800781 198.46142578125 14.89117431640625 190.3838500976562 11.53231811523438 C 182.1568908691406 8.111328125 173.5474243164062 5.483917236328125 164.794677734375 3.72308349609375 C 155.8129577636719 1.916168212890625 146.5683441162109 1 137.3175964355469 1 M 137.3175964355469 0 C 213.1559906005859 0 274.6351928710938 60.44157409667969 274.6351928710938 135 C 274.6351928710938 209.5584259033203 213.1559906005859 270 137.3175964355469 270 C 61.47917175292969 270 0 209.5584259033203 0 135 C 0 60.44157409667969 61.47917175292969 0 137.3175964355469 0 Z" stroke="none" fill="rgba(112,112,112,0.02)"/>
    </g>
    <path id="ic_person_24px" d="M84,84A40,40,0,1,0,44,44,39.989,39.989,0,0,0,84,84Zm0,20c-26.7,0-80,13.4-80,40v20H164V144C164,117.4,110.7,104,84,104Z" transform="translate(130 205)" fill="#d07b7c"/>
  </g>
</svg>
